:SAMPLES-PER-SECOND 30
:FULLY-SPECIFIED
:DEGREES
80
root  -0.970817 38.8081 -39.1496 -160.267 -82.1157 152.602
RightUpLeg  -7.21409 1.22551 -11.6639
RightLeg  65.2717 1.81969 3.7595
RightFoot  12.0037 -2.09404 10.4763
RightToes  -5.8209e-011 0 -3.6325e-017
Spine  4.14466 2.29174 -0.010218
Spine1  13.1743 3.74841 -5.45756
HEad  -11.2729 5.23587 -6.19201
LeftShoulder1  8.7856 -12.2338 -48.7323
LeftArm  -7.19614 23.4448 -26.6598
LeftForeArm  22.6977 -19.4767 -3.9236
LeftHand  -0.244104 0.0205437 5.32207
RightShoulder  7.45315 11.0104 44.8446
RightArm  -5.28358 -10.1386 33.3445
RightForeArm  14.4512 -0.304472 6.77324
RightHand  -1.35287 3.35329 -18.0805
LeftUpLeg  -14.4453 13.1543 -12.3254
LeftLeg  20.179 12.4373 4.90348
LeftFoot  -2.14007 -1.1047 13.8158
LeftToes  5.72949e-011 -2.03295e-011 6.54899e-012
81
root  -2.31727 39.2405 -39.0397 -147.286 -85.2026 139.403
RightUpLeg  -11.8343 0.903944 -10.7332
RightLeg  64.4253 0.361371 0.26133
RightFoot  7.79178 -1.38558 8.5575
RightToes  -5.8209e-011 0 -3.6325e-017
Spine  4.80387 1.15751 0.496363
Spine1  12.8338 2.47245 -4.80746
HEad  -11.5251 5.5981 -8.01422
LeftShoulder1  8.67542 -12.0436 -48.708
LeftArm  -7.7357 21.6279 -26.3032
LeftForeArm  24.0636 -24.4026 -3.90141
LeftHand  -0.244104 0.0205437 5.32207
RightShoulder  7.24369 10.6759 44.5978
RightArm  -4.41805 -14.1921 32.509
RightForeArm  15.4578 3.03865 7.002
RightHand  -1.32403 3.32189 -17.7623
LeftUpLeg  -10.4165 10.2433 -11.3808
LeftLeg  18.0869 12.6404 3.73034
LeftFoot  -3.1714 -0.955379 13.5685
LeftToes  5.72949e-011 -2.03295e-011 6.54899e-012
82
root  -3.57919 39.5572 -38.9373 -140.634 -89.0533 132.655
RightUpLeg  -15.3624 0.523828 -9.78668
RightLeg  59.6671 -0.77568 -1.91812
RightFoot  5.3734 -1.08035 7.59562
RightToes  -5.8209e-011 0 -3.6325e-017
Spine  5.67518 0.0339369 0.958476
Spine1  12.0385 1.07106 -4.07818
HEad  -11.1857 5.51181 -9.25177
LeftShoulder1  8.52001 -11.8913 -48.3048
LeftArm  -10.2587 20.3899 -26.3872
LeftForeArm  26.8714 -30.1152 -5.06928
LeftHand  -0.244104 0.0205437 5.32207
RightShoulder  6.83315 10.1892 43.5158
RightArm  -2.23209 -18.8887 32.1233
RightForeArm  12.1122 8.04985 7.70472
RightHand  -1.2847 3.39442 -17.1128
LeftUpLeg  -6.96277 7.46021 -10.347
LeftLeg  16.5524 11.9598 2.48846
LeftFoot  -4.57782 -0.760418 13.2817
LeftToes  5.72949e-011 -2.03295e-011 6.54899e-012
83
root  -4.8257 39.7782 -38.8516 -27.1414 -86.2936 19.1185
RightUpLeg  -17.7671 0.719921 -9.24481
RightLeg  51.8041 -2.00036 -3.08308
RightFoot  4.02053 -0.834099 6.38383
RightToes  -5.8209e-011 0 -3.6325e-017
Spine  6.30187 -0.775367 1.0389
Spine1  11.405 -0.0304256 -3.326
HEad  -10.5922 5.31612 -10.0256
LeftShoulder1  8.35121 -11.7518 -47.7744
LeftArm  -11.9974 19.5031 -26.6954
LeftForeArm  29.0554 -36.6907 -6.60075
LeftHand  -0.244104 0.0205437 5.32207
RightShoulder  6.48674 9.82037 42.3919
RightArm  2.47946 -23.0794 31.8417
RightForeArm  5.60443 12.9333 7.67806
RightHand  -1.27937 3.47295 -16.8973
LeftUpLeg  -3.88195 5.29218 -9.48716
LeftLeg  15.3349 10.6935 1.26269
LeftFoot  -5.84193 -0.616921 13.5203
LeftToes  5.72949e-011 -2.03295e-011 6.54899e-012
84
root  -6.10738 39.8466 -38.8094 -9.86549 -82.9442 2.01202
RightUpLeg  -18.9371 0.814207 -9.76358
RightLeg  41.4279 -2.98887 -3.12558
RightFoot  2.41374 -0.794364 6.73637
RightToes  -5.8209e-011 0 -3.6325e-017
Spine  6.26373 -1.30063 0.136191
Spine1  11.3644 -0.866015 -2.67408
HEad  -10.2068 5.0142 -10.2299
LeftShoulder1  8.24689 -11.6623 -47.4506
LeftArm  -12.8672 18.4996 -26.771
LeftForeArm  31.4681 -43.376 -8.44778
LeftHand  -0.244104 0.0205437 5.32207
RightShoulder  6.28711 9.60101 41.73
RightArm  7.05363 -26.1449 31.4259
RightForeArm  0.734375 16.5107 6.80112
RightHand  -1.36568 3.70775 -17.5566
LeftUpLeg  -1.75635 3.79693 -9.28809
LeftLeg  15.4868 8.76001 0.546838
LeftFoot  -7.55036 -0.408957 13.6364
LeftToes  5.72949e-011 -2.03295e-011 6.54899e-012
